# xmcd
#
# Track frame offsets: 
#        182
#        11422
#        22212
#        38857
#        47272
#        58182
#        69792
#        79677
#        91862
#        103247
#        114732
#        128907
#        140802
#        153547
#        165187
#        180762
#        192222
#        202612
#        217662
#        230917
#        248832
#        261547
#        275062
#        287012
#        297162
#        308742
#        323152
#
# Disc length: 4494 seconds
#
# Revision: 0
# Processed by: cddbd v1.5.2PL0 Copyright (c) Steve Scherf et al.
# Submitted via: ExactAudioCopy v0.99pb5
#
DISCID=7c118c1b
DTITLE=Joe St. Denis - Joe St. Denis and Daughters Kelly and Lynne
DYEAR=1996
DGENRE=Country
TTITLE0=Daddy Please Don't Go
TTITLE1=I Love My Big Mack
TTITLE2=A Song For Mama
TTITLE3=Dreamboat
TTITLE4=Just Around The Corner
TTITLE5=The Night You Said Goodbye
TTITLE6=When We Are Together
TTITLE7=It's Time You Were Leaving
TTITLE8=She's Not A Tramp, She's A Lover
TTITLE9=Truckin' Through  The North
TTITLE10=You've Got The Colours of A Rainbow
TTITLE11=The Movie Has Ended
TTITLE12=Comes A Time You'll Be Needing A Freind
TTITLE13=I Wonder What They're Singing Up There
TTITLE14=A Few Words From Elvis
TTITLE15=I Don't Want To Be A Shadow Of Love
TTITLE16=I Don't Drink 'Cause I Like It
TTITLE17=All The Little Children And Me
TTITLE18=Don't Forget Me Little Darlin'
TTITLE19=Why Did She Throw Away The Roses
TTITLE20=I've Become A Country Music Lover
TTITLE21=Just Look At The Stars In The Sky
TTITLE22=Walking Throught The Bars
TTITLE23=It's The North Land Where I Love It
TTITLE24=The Rooster
TTITLE25=That Country Road
TTITLE26=Beautiful Sunday
EXTD=
EXTT0=
EXTT1=
EXTT2=
EXTT3=
EXTT4=
EXTT5=
EXTT6=
EXTT7=
EXTT8=
EXTT9=
EXTT10=
EXTT11=
EXTT12=
EXTT13=
EXTT14=
EXTT15=
EXTT16=
EXTT17=
EXTT18=
EXTT19=
EXTT20=
EXTT21=
EXTT22=
EXTT23=
EXTT24=
EXTT25=
EXTT26=
PLAYORDER=
